<svg xmlns="http://www.w3.org/2000/svg" xmlns:xlink="http://www.w3.org/1999/xlink" width="200" zoomAndPan="magnify" viewBox="0 0 150 149.999998" height="200" preserveAspectRatio="xMidYMid meet" version="1.0"><defs><clipPath id="9521607fff"><path d="M 4 79 L 42 79 L 42 108 L 4 108 Z M 4 79 " clip-rule="nonzero"/></clipPath><clipPath id="8ec895dfee"><path d="M 4.371094 91.367188 L 35.445312 79.210938 L 41.917969 95.761719 L 10.847656 107.917969 Z M 4.371094 91.367188 " clip-rule="nonzero"/></clipPath><clipPath id="954cc93153"><path d="M 0.320312 0.199219 L 38 0.199219 L 38 29 L 0.320312 29 Z M 0.320312 0.199219 " clip-rule="nonzero"/></clipPath><clipPath id="53e83b859c"><path d="M 0.371094 12.367188 L 31.445312 0.210938 L 37.917969 16.761719 L 6.847656 28.917969 Z M 0.371094 12.367188 " clip-rule="nonzero"/></clipPath><clipPath id="4cf2c44210"><rect x="0" width="38" y="0" height="29"/></clipPath></defs><path fill="#000000" d="M 93.964844 51.453125 C 92.253906 53.304688 88.261719 53.9375 87.375 52.5 C 86.722656 51.445312 85.503906 51.566406 85.484375 52.6875 C 85.449219 54.617188 79.207031 58.933594 71.417969 62.410156 L 63.375 66.007812 L 57.421875 64.503906 C 54.144531 63.675781 50.429688 63.015625 49.171875 63.035156 C 47.15625 63.070312 24.53125 71.703125 25.5 72.066406 C 25.707031 72.144531 30.058594 72.414062 35.171875 72.667969 C 44.203125 73.113281 44.515625 73.183594 46.003906 75.183594 L 47.539062 77.242188 L 45.4375 79.433594 C 44.28125 80.640625 42.601562 81.8125 41.703125 82.039062 C 38.367188 82.875 39.847656 90.113281 43.625 91.429688 C 44.886719 91.871094 46.222656 92.046875 46.585938 91.820312 C 47.675781 91.148438 47.347656 92.289062 45.667969 95.003906 C 44.570312 96.78125 42.339844 98.457031 38.355469 100.492188 C 31.707031 103.894531 32.410156 104.191406 41.082031 101.648438 C 47.703125 99.703125 49.867188 98.453125 53.960938 94.191406 C 56.363281 91.691406 56.863281 91.5 61.085938 91.480469 C 63.582031 91.472656 66.898438 91.167969 68.453125 90.808594 C 70.820312 90.257812 71.394531 90.371094 72 91.496094 C 72.882812 93.152344 72.125 93.855469 67.179688 95.976562 C 61.054688 98.601562 63.816406 98.429688 73.128906 95.609375 C 86.355469 91.597656 87.136719 91.207031 86.300781 89.011719 C 85.617188 87.214844 85.714844 87.167969 95.117188 84.796875 C 107.949219 81.5625 113.257812 78.941406 116.996094 74 C 122.816406 66.304688 123.5625 65.613281 127.605469 64.1875 C 136.664062 60.992188 144.28125 56.101562 141.664062 55.15625 C 134.53125 52.582031 110.886719 51.703125 100.152344 53.617188 C 96.867188 54.203125 94.042969 54.542969 93.871094 54.371094 C 93.183594 53.683594 94.605469 51.582031 96.003906 51.214844 C 96.828125 51 97.5 50.527344 97.5 50.164062 C 97.5 48.957031 95.648438 49.632812 93.964844 51.453125 M 29.027344 88.289062 C 26.636719 88.917969 24.824219 89.574219 25 89.75 C 25.480469 90.230469 35.515625 88.355469 36.335938 87.628906 C 37.40625 86.683594 33.957031 86.996094 29.027344 88.289062 " fill-opacity="1" fill-rule="evenodd"/><g clip-path="url(#9521607fff)"><g clip-path="url(#8ec895dfee)"><g transform="matrix(1, 0, 0, 1, 4, 79)"><g clip-path="url(#4cf2c44210)"><g clip-path="url(#954cc93153)"><g clip-path="url(#53e83b859c)"><path fill="#ffffff" d="M 0.371094 12.367188 L 31.46875 0.199219 L 37.941406 16.75 L 6.847656 28.917969 Z M 0.371094 12.367188 " fill-opacity="1" fill-rule="nonzero"/></g></g></g></g></g></g></svg>