<svg xmlns="http://www.w3.org/2000/svg" xmlns:xlink="http://www.w3.org/1999/xlink" width="200" zoomAndPan="magnify" viewBox="0 0 150 149.999998" height="200" preserveAspectRatio="xMidYMid meet" version="1.0"><defs><clipPath id="9b1f4bbbee"><path d="M 13 51 L 137 51 L 137 99 L 13 99 Z M 13 51 " clip-rule="nonzero"/></clipPath><clipPath id="e686cda9c0"><path d="M 0.917969 -7.828125 L 150 8.746094 L 133.425781 157.828125 L -15.65625 141.253906 Z M 0.917969 -7.828125 " clip-rule="nonzero"/></clipPath><clipPath id="d014e2402a"><path d="M 0.917969 -7.828125 L 150 8.746094 L 133.425781 157.828125 L -15.65625 141.253906 Z M 0.917969 -7.828125 " clip-rule="nonzero"/></clipPath><clipPath id="5a1e33c06b"><path d="M 0.917969 -7.828125 L 150 8.746094 L 133.425781 157.828125 L -15.65625 141.253906 Z M 0.917969 -7.828125 " clip-rule="nonzero"/></clipPath><clipPath id="708e5c8d50"><path d="M 7.203125 75 L 29.710938 75 L 29.710938 91.808594 L 7.203125 91.808594 Z M 7.203125 75 " clip-rule="nonzero"/></clipPath><clipPath id="20aefbb7de"><path d="M 0.203125 0 L 22.710938 0 L 22.710938 16.808594 L 0.203125 16.808594 Z M 0.203125 0 " clip-rule="nonzero"/></clipPath><clipPath id="37b94a1d9f"><rect x="0" width="23" y="0" height="17"/></clipPath></defs><g clip-path="url(#9b1f4bbbee)"><g clip-path="url(#e686cda9c0)"><g clip-path="url(#d014e2402a)"><g clip-path="url(#5a1e33c06b)"><path fill="#000000" d="M 89.09375 53.371094 C 87.566406 54.714844 86.179688 55.230469 84.570312 55.050781 C 83.292969 54.90625 82.285156 54.457031 82.332031 54.046875 C 82.375 53.636719 81.910156 53.246094 81.296875 53.175781 C 80.679688 53.109375 80.140625 53.375 80.097656 53.769531 C 79.996094 54.675781 73.324219 59.835938 72.390625 59.734375 C 72.007812 59.691406 68.328125 60.816406 64.214844 62.230469 L 56.730469 64.808594 L 49.570312 62.132812 L 42.40625 59.453125 L 29.40625 63.082031 L 16.402344 66.714844 L 26.136719 68.007812 C 35.84375 69.292969 35.875 69.304688 37.742188 71.746094 L 39.613281 74.191406 L 37.714844 75.808594 C 36.667969 76.699219 34.796875 77.722656 33.550781 78.085938 C 31.808594 78.589844 31.234375 79.222656 31.054688 80.851562 C 30.675781 84.261719 31.910156 86.8125 34.519531 88.007812 C 37.308594 89.285156 37.28125 89.171875 35.445312 91.921875 C 34.417969 93.464844 32.480469 94.539062 28.207031 95.941406 C 19.09375 98.929688 20.847656 99.582031 32.398438 97.492188 C 36.398438 96.769531 38.9375 95.699219 42.769531 93.121094 L 47.839844 89.703125 L 55.144531 90.03125 C 62.089844 90.347656 62.4375 90.433594 62.28125 91.84375 C 62.164062 92.917969 60.949219 93.691406 57.816406 94.679688 C 53.226562 96.128906 52.046875 97.195312 55.507812 96.765625 C 58.84375 96.351562 77.289062 92.59375 77.320312 92.320312 C 77.335938 92.1875 77.132812 91.238281 76.867188 90.210938 C 76.398438 88.402344 76.566406 88.320312 82.246094 87.632812 C 85.46875 87.242188 91.339844 86.292969 95.289062 85.523438 C 101.417969 84.328125 103.039062 83.671875 106.359375 81.011719 C 108.5 79.300781 111.464844 76.480469 112.945312 74.746094 C 115.300781 71.980469 116.449219 71.367188 122.164062 69.828125 C 129.0625 67.96875 136.226562 64.730469 136.375 63.40625 C 136.425781 62.96875 132.765625 61.550781 128.238281 60.25 C 118.492188 57.449219 103.753906 55.761719 94.519531 56.390625 C 91.175781 56.617188 88.324219 56.679688 88.1875 56.523438 C 87.574219 55.839844 89.289062 53.886719 90.675781 53.683594 C 92.222656 53.457031 92.777344 52.5625 91.820312 51.832031 C 91.535156 51.609375 90.308594 52.304688 89.09375 53.371094 M 19.089844 83.273438 C 10.382812 84.6875 11.226562 85.199219 20.804688 84.316406 C 24.335938 83.992188 27.410156 83.328125 27.632812 82.847656 C 28.128906 81.769531 28.441406 81.753906 19.089844 83.273438 M 18.679688 86.964844 C 17.695312 87.265625 17.53125 87.484375 18.234375 87.5625 C 18.851562 87.632812 20.054688 87.476562 20.914062 87.214844 C 21.898438 86.914062 22.0625 86.695312 21.359375 86.613281 C 20.742188 86.546875 19.539062 86.703125 18.679688 86.964844 " fill-opacity="1" fill-rule="evenodd"/></g></g></g></g><g clip-path="url(#708e5c8d50)"><g transform="matrix(1, 0, 0, 1, 7, 75)"><g clip-path="url(#37b94a1d9f)"><g clip-path="url(#20aefbb7de)"><path fill="#ffffff" d="M 0.203125 0 L 22.722656 0 L 22.722656 16.808594 L 0.203125 16.808594 Z M 0.203125 0 " fill-opacity="1" fill-rule="nonzero"/></g></g></g></g></svg>